<svg data-v-0dd9719b="" version="1.0" xmlns="http://www.w3.org/2000/svg" xmlns:xlink="http://www.w3.org/1999/xlink" width="100%" height="100%" viewBox="0 0 340.000000 250.000000" preserveAspectRatio="xMidYMid meet" color-interpolation-filters="sRGB" style="margin: auto;"> <rect data-v-0dd9719b="" x="0" y="0" width="100%" height="100%" fill="#fff" fill-opacity="1" class="background"></rect> <rect data-v-0dd9719b="" x="0" y="0" width="100%" height="100%" fill="url(#watermark)" fill-opacity="1" class="watermarklayer"></rect> <g data-v-0dd9719b="" fill="#333" class="icon-text-wrapper icon-svg-group iconsvg" transform="translate(57.524993896484375,94.99069595336914)"><g class="iconsvg-imagesvg" transform="translate(0,0)"><g><rect fill="#333" fill-opacity="0" stroke-width="2" x="0" y="0" width="60" height="60.01860576778802" class="image-rect"></rect> <svg x="0" y="0" width="60" height="60.01860576778802" filtersec="colorsb3442721034" class="image-svg-svg primary" style="overflow: visible;"><svg xmlns="http://www.w3.org/2000/svg" viewBox="-0.0004231940256431699 -0.00042338765342719853 96.32041931152344 96.35041809082031"><path d="M46.51 80.55a32.43 32.43 0 0 1 0-64.78V0h-.38a1.79 1.79 0 0 0-1.77 1.53l-.26 1.82a4.71 4.71 0 0 1-3.75 3.94 41.1 41.1 0 0 0-5.86 1.57 4.7 4.7 0 0 1-5.22-1.54l-1.13-1.44a1.78 1.78 0 0 0-2.3-.44l-3.52 2a1.78 1.78 0 0 0-.76 2.21l.68 1.71A4.67 4.67 0 0 1 21 16.67 43.43 43.43 0 0 0 16.67 21a4.67 4.67 0 0 1-5.28 1.28l-1.71-.68a1.78 1.78 0 0 0-2.21.76l-2 3.52a1.78 1.78 0 0 0 .44 2.3l1.44 1.13a4.7 4.7 0 0 1 1.54 5.22 41.1 41.1 0 0 0-1.57 5.86 4.71 4.71 0 0 1-3.97 3.71l-1.82.26A1.79 1.79 0 0 0 0 46.13v4.06A1.79 1.79 0 0 0 1.53 52l1.82.26A4.69 4.69 0 0 1 7.29 56a41.45 41.45 0 0 0 1.57 5.86 4.7 4.7 0 0 1-1.54 5.22l-1.44 1.1a1.78 1.78 0 0 0-.44 2.3l2 3.51a1.77 1.77 0 0 0 2.21.77l1.71-.68a4.68 4.68 0 0 1 5.28 1.27 42.48 42.48 0 0 0 4.36 4.3 4.67 4.67 0 0 1 1.28 5.28l-.68 1.71a1.78 1.78 0 0 0 .76 2.21l3.52 2a1.78 1.78 0 0 0 2.3-.44L29.27 89a4.7 4.7 0 0 1 5.22-1.54A41.1 41.1 0 0 0 40.35 89a4.69 4.69 0 0 1 3.75 4l.26 1.81a1.8 1.8 0 0 0 1.77 1.54h.38z" fill="#0087ff"></path><path d="M94.78 44.36L93 44.1a4.69 4.69 0 0 1-4-3.75 41.1 41.1 0 0 0-1.57-5.86A4.69 4.69 0 0 1 89 29.27l1.44-1.13a1.79 1.79 0 0 0 .44-2.3l-2-3.52a1.78 1.78 0 0 0-2.21-.76l-1.71.68A4.68 4.68 0 0 1 79.65 21a42.48 42.48 0 0 0-4.3-4.29 4.68 4.68 0 0 1-1.27-5.28l.68-1.71A1.78 1.78 0 0 0 74 7.47l-3.52-2a1.78 1.78 0 0 0-2.3.44l-1.13 1.41a4.7 4.7 0 0 1-5.22 1.54A41.45 41.45 0 0 0 56 7.29a4.69 4.69 0 0 1-3.75-3.94L52 1.53A1.79 1.79 0 0 0 50.19 0h-.38v15.77a32.43 32.43 0 0 1 0 64.78v15.77h.38A1.8 1.8 0 0 0 52 94.78l.22-1.78A4.66 4.66 0 0 1 56 89a41.45 41.45 0 0 0 5.86-1.57A4.69 4.69 0 0 1 67.05 89l1.13 1.44a1.79 1.79 0 0 0 2.3.44l3.52-2a1.78 1.78 0 0 0 .76-2.21l-.68-1.71a4.68 4.68 0 0 1 1.27-5.28 41.56 41.56 0 0 0 4.3-4.3 4.68 4.68 0 0 1 5.28-1.27l1.71.68a1.78 1.78 0 0 0 2.21-.79l2-3.51a1.78 1.78 0 0 0-.44-2.3L89 67.05a4.7 4.7 0 0 1-1.54-5.22A41.45 41.45 0 0 0 89 56a4.66 4.66 0 0 1 4-3.78l1.78-.22a1.8 1.8 0 0 0 1.54-1.77v-4.1a1.8 1.8 0 0 0-1.54-1.77z" fill="#ff006f"></path><path d="M49.81 21.19v13.93h8a3.06 3.06 0 1 1 0 1.83h-8v10.3h12.68a3.05 3.05 0 1 1 0 1.82H49.81v10.3h8a3.06 3.06 0 1 1 0 1.82h-8v13.94a27 27 0 0 0 0-53.94zM21.13 48.16a27 27 0 0 0 25.38 27V21.19a27 27 0 0 0-25.38 26.97zm22.18-13h-4.85a3.06 3.06 0 1 0 0 1.83h4.85v10.3h-9.49a3.05 3.05 0 1 0 0 1.82h9.49v10.3h-4.85a3.06 3.06 0 1 0 0 1.83h4.85v10.24a23.82 23.82 0 0 1 0-46.64z" fill="#2a3294"></path></svg></svg> <!----></g></g> <g transform="translate(67,6.609302520751953)"><g data-gra="path-name" fill-rule="" class="tp-name iconsvg-namesvg"><g transform="scale(1)"><g><path d="M3.9-12.48Q4.94-5.98 9.85-2.67 14.76 0.65 21.91 0.65L21.91 0.65Q26.2 0.65 29.84-1.2 33.48-3.06 36.01-6.01 38.55-8.97 38.55-13L38.55-13Q38.55-17.55 35.81-20.18 33.09-22.82 29.87-23.98 26.65-25.16 21-26.52L21-26.52 19.7-26.91Q15.54-27.95 13.1-29.35 10.66-30.75 10.66-33.61L10.66-33.61Q10.66-37.25 13.65-39 16.64-40.76 20.73-40.76L20.73-40.76Q30.36-39.45 32.24-32.83L32.24-32.83 36.47-34.13Q35.75-39.72 31.3-42.93 26.85-46.15 20.48-46.15L20.48-46.15Q9.88-46.15 7.25-43.03 4.62-39.91 4.62-33.34L4.62-33.34Q4.62-29.45 6.99-27.01 9.36-24.57 12.19-23.37 15.02-22.16 19.63-20.87L19.63-20.87Q20.48-20.61 21.25-20.54L21.25-20.54Q24.57-19.82 26.88-19.05 29.19-18.27 30.88-16.74 32.56-15.21 32.56-12.74L32.56-12.74Q32.56-8.84 29.32-6.99 26.07-5.13 21.64-5.13L21.64-5.13Q17.36-5.13 13.33-7.54 9.29-9.95 8.13-13.78L8.13-13.78 3.9-12.48ZM51.48-15.99L56.75-22.75 70.33 0 75.99 0 60.26-26.52 76.5-45.5 70.2-45.5 51.48-23.14 51.48-45.5 44.85-45.5 44.85 0 50.51 0Q50.9 0 51.19-0.29 51.48-0.58 51.48-0.98L51.48-0.98 51.48-15.99ZM97.37 0L102.12 0Q102.5 0 102.8-0.29 103.09-0.58 103.09-0.98L103.09-0.98 103.09-19.5 119.6-45.5 113.1-45.5 100.1-25.09 87.36-45.5 80.6-45.5 97.37-19.76 97.37 0ZM126.1 0.07L130.65-13.71 150.8-13.71 155.61 0.07 161.85 0.07 143.59-45.44 136.89-45.44 119.6 0.07 126.1 0.07ZM140.66-39.84L149.05-18.59 132.28-18.59 140.66-39.84Z" transform="translate(-3.9000000953674316, 46.150001525878906)"></path></g> <!----> <!----> <!----> <!----> <!----> <!----> <!----></g></g> <!----></g></g><defs v-gra="od"></defs></svg>